<?xml version="1.0" encoding="utf-8"?>
<!-- Generator: Adobe Illustrator 19.0.0, SVG Export Plug-In . SVG Version: 6.00 Build 0)  -->
<svg version="1.1" id="Layer_1" xmlns="http://www.w3.org/2000/svg" xmlns:xlink="http://www.w3.org/1999/xlink" x="0px" y="0px"
	 viewBox="0 0 129.4 129.4" style="enable-background:new 0 0 129.4 129.4;" xml:space="preserve">
<style type="text/css">
	.st0{fill:#17B212;}
	.st1{fill:#F7F7F7;}
	.st2{fill:none;stroke:#104EA9;stroke-miterlimit:10;}
	.st3{fill:none;stroke:#17B212;stroke-miterlimit:10;}
	.st4{fill:#104EA9;}
	.st5{fill:none;}
</style>
<path id="XMLID_48_" class="st0" d="M117,103.2H11.5c-1.2,0-2.2-1-2.2-2.2v-0.7c0-1.2,1-2.2,2.2-2.2H117c1.2,0,2.2,1,2.2,2.2v0.7
	C119.3,102.2,118.3,103.2,117,103.2"/>
<path id="XMLID_47_" class="st1" d="M68,101.8h-7.4c-0.6,0-1-0.5-1-1v-0.3c0-0.6,0.5-1,1-1H68c0.6,0,1,0.5,1,1v0.3
	C69,101.3,68.5,101.8,68,101.8"/>
<path id="XMLID_46_" class="st2" d="M18.4,53v41c0,1,0.8,1.8,1.8,1.8h88.4c1,0,1.8-0.8,1.8-1.8V53.8"/>
<path id="XMLID_45_" class="st3" d="M115.8,38.6H13.3c0,0,0,0,0,0l9.1-10.2H106L115.8,38.6C115.8,38.5,115.8,38.6,115.8,38.6z"/>
<path id="XMLID_44_" class="st3" d="M13.2,38.6v5.6c0,5.8,4.6,10.5,10.3,10.5s10.3-4.7,10.3-10.5v-5.6"/>
<path id="XMLID_43_" class="st3" d="M54.3,38.6v5.6c0,5.8-4.6,10.5-10.3,10.5s-10.3-4.7-10.3-10.5v-5.6l4.3-10.2"/>
<path id="XMLID_42_" class="st3" d="M74.8,38.6v5.6c0,5.8,4.6,10.5,10.3,10.5s10.3-4.7,10.3-10.5v-5.6"/>
<path id="XMLID_41_" class="st3" d="M73.2,28.4l1.5,10.2v5.6c0,5.8-4.6,10.5-10.3,10.5c-5.7,0-10.3-4.7-10.3-10.5v-5.6l1.9-10.2"/>
<path id="XMLID_40_" class="st3" d="M90.4,28.4l4.9,10.2v5.6c0,5.8,4.6,10.5,10.3,10.5s10.3-4.7,10.3-10.5v-5.6"/>
<g id="XMLID_39_">
	<path id="XMLID_63_" class="st4" d="M37.7,65H40v12.4h-2.3V65z"/>
	<path id="XMLID_65_" class="st4" d="M41.6,67.4h2.3v1.4c0.3-0.4,0.7-0.7,1.3-1c0.5-0.3,1.1-0.4,1.7-0.4c1.2,0,2.2,0.4,2.9,1.1
		c0.7,0.7,1,1.8,1,3.1v5.8h-2.3v-5.5c0-0.8-0.2-1.4-0.6-1.8s-0.9-0.7-1.7-0.7c-0.7,0-1.2,0.2-1.7,0.7c-0.4,0.5-0.7,1.1-0.7,2v5.3
		h-2.3V67.4z"/>
	<path id="XMLID_67_" class="st4" d="M52.1,75.3l5.5-8.1h-5.3V65h8v2.1l-5.5,8.1h5.5v2.2h-8.2V75.3z"/>
	<path id="XMLID_69_" class="st4" d="M66,77.4c-0.7,0-1.4-0.1-2-0.4c-0.6-0.3-1.2-0.6-1.6-1.1s-0.8-1-1.1-1.6
		c-0.3-0.6-0.4-1.3-0.4-1.9c0-0.7,0.1-1.4,0.4-2s0.6-1.1,1.1-1.6s1-0.8,1.6-1.1c0.6-0.3,1.3-0.4,2-0.4c0.7,0,1.4,0.1,2,0.4
		c0.6,0.3,1.2,0.6,1.6,1.1c0.5,0.5,0.8,1,1.1,1.6c0.3,0.6,0.4,1.3,0.4,2c0,0.7-0.1,1.3-0.4,1.9c-0.3,0.6-0.6,1.1-1.1,1.6
		c-0.5,0.5-1,0.8-1.6,1.1C67.3,77.3,66.7,77.4,66,77.4z M66,75.3c0.4,0,0.8-0.1,1.1-0.2c0.4-0.1,0.7-0.4,0.9-0.6
		c0.3-0.3,0.5-0.6,0.6-0.9c0.1-0.3,0.2-0.7,0.2-1.1c0-0.4-0.1-0.8-0.2-1.1c-0.1-0.3-0.4-0.6-0.6-0.9c-0.3-0.3-0.6-0.5-0.9-0.6
		c-0.4-0.1-0.7-0.2-1.1-0.2c-0.4,0-0.8,0.1-1.1,0.2c-0.4,0.1-0.7,0.4-0.9,0.6c-0.3,0.3-0.5,0.6-0.6,0.9c-0.1,0.3-0.2,0.7-0.2,1.1
		c0,0.4,0.1,0.8,0.2,1.1c0.1,0.3,0.3,0.6,0.6,0.9c0.3,0.3,0.6,0.5,0.9,0.6C65.2,75.2,65.6,75.3,66,75.3z"/>
	<path id="XMLID_72_" class="st4" d="M72.1,67.4h2.3v1.4c0.3-0.4,0.7-0.7,1.3-1c0.5-0.3,1.1-0.4,1.7-0.4c1.2,0,2.2,0.4,2.9,1.1
		c0.7,0.7,1,1.8,1,3.1v5.8H79v-5.5c0-0.8-0.2-1.4-0.6-1.8s-0.9-0.7-1.7-0.7c-0.7,0-1.2,0.2-1.7,0.7c-0.4,0.5-0.7,1.1-0.7,2v5.3h-2.3
		V67.4z"/>
	<path id="XMLID_74_" class="st4" d="M87.6,77.4c-0.8,0-1.5-0.1-2.1-0.4c-0.6-0.3-1.2-0.6-1.7-1.1c-0.5-0.4-0.8-1-1.1-1.6
		c-0.3-0.6-0.4-1.3-0.4-1.9c0-0.7,0.1-1.4,0.4-2s0.6-1.1,1.1-1.6s1-0.8,1.6-1.1c0.6-0.3,1.3-0.4,2-0.4c0.7,0,1.4,0.1,2.1,0.4
		s1.2,0.6,1.6,1c0.5,0.4,0.8,0.9,1.1,1.5c0.3,0.6,0.4,1.2,0.4,1.9V73h-8.1c0.2,0.7,0.5,1.3,1,1.7c0.5,0.4,1.2,0.6,2,0.6
		c0.6,0,1.2-0.2,1.7-0.5c0.5-0.3,0.8-0.7,1.1-1.3l1.9,1.1c-0.4,0.8-1,1.5-1.8,2C89.7,77.2,88.7,77.4,87.6,77.4z M87.5,69.5
		c-0.7,0-1.3,0.2-1.8,0.5s-0.9,0.7-1.1,1.2h5.7c-0.2-0.5-0.5-1-1-1.2C88.9,69.6,88.3,69.5,87.5,69.5z"/>
</g>
<g id="XMLID_38_">
	<path id="XMLID_77_" class="st4" d="M39.3,81.7c-0.2,0-0.4,0-0.6-0.1c-0.2-0.1-0.3-0.2-0.5-0.3c-0.1-0.1-0.2-0.3-0.3-0.5
		s-0.1-0.4-0.1-0.6c0-0.2,0-0.4,0.1-0.6c0.1-0.2,0.2-0.3,0.3-0.4c0.1-0.1,0.3-0.2,0.5-0.3c0.2-0.1,0.4-0.1,0.6-0.1
		c0.1,0,0.3,0,0.4,0.1c0.1,0,0.2,0.1,0.3,0.1c0.1,0.1,0.2,0.1,0.3,0.2s0.2,0.2,0.2,0.3L40,79.8c-0.1-0.1-0.2-0.3-0.3-0.3
		s-0.3-0.1-0.5-0.1c-0.1,0-0.3,0-0.4,0.1c-0.1,0-0.2,0.1-0.3,0.2s-0.1,0.2-0.2,0.3c0,0.1-0.1,0.2-0.1,0.4c0,0.1,0,0.2,0.1,0.3
		c0,0.1,0.1,0.2,0.2,0.3s0.2,0.1,0.3,0.2c0.1,0,0.2,0.1,0.4,0.1c0.2,0,0.4,0,0.5-0.1c0.1-0.1,0.2-0.2,0.3-0.4l0.5,0.2
		c-0.1,0.1-0.1,0.2-0.2,0.3c-0.1,0.1-0.2,0.2-0.3,0.3c-0.1,0.1-0.2,0.1-0.4,0.2C39.5,81.6,39.4,81.7,39.3,81.7z"/>
	<path id="XMLID_79_" class="st4" d="M41.9,81.7c-0.2,0-0.3,0-0.5-0.1s-0.3-0.1-0.4-0.2c-0.1-0.1-0.2-0.2-0.3-0.4
		c-0.1-0.1-0.1-0.3-0.1-0.4c0-0.2,0-0.3,0.1-0.4s0.1-0.3,0.3-0.4c0.1-0.1,0.2-0.2,0.4-0.2s0.3-0.1,0.5-0.1s0.3,0,0.5,0.1
		c0.1,0.1,0.3,0.1,0.4,0.2c0.1,0.1,0.2,0.2,0.3,0.4c0.1,0.1,0.1,0.3,0.1,0.4c0,0.2,0,0.3-0.1,0.4c-0.1,0.1-0.1,0.3-0.3,0.4
		c-0.1,0.1-0.2,0.2-0.4,0.2C42.2,81.6,42,81.7,41.9,81.7z M41.9,81.2c0.1,0,0.2,0,0.3-0.1c0.1,0,0.2-0.1,0.2-0.1
		c0.1-0.1,0.1-0.1,0.1-0.2c0-0.1,0.1-0.2,0.1-0.3c0-0.1,0-0.2-0.1-0.3s-0.1-0.1-0.1-0.2s-0.1-0.1-0.2-0.1c-0.1,0-0.2-0.1-0.3-0.1
		s-0.2,0-0.3,0.1c-0.1,0-0.2,0.1-0.2,0.1c-0.1,0.1-0.1,0.1-0.1,0.2s-0.1,0.2-0.1,0.3c0,0.1,0,0.2,0.1,0.3c0,0.1,0.1,0.1,0.1,0.2
		c0.1,0.1,0.1,0.1,0.2,0.1C41.7,81.1,41.8,81.2,41.9,81.2z"/>
	<path id="XMLID_82_" class="st4" d="M43.3,79.4h0.5v0.3c0.1-0.2,0.3-0.3,0.6-0.3c0.1,0,0.2,0,0.2,0c0.1,0,0.1,0,0.2,0.1L44.6,80
		c0,0-0.1,0-0.1-0.1c0,0-0.1,0-0.2,0c-0.2,0-0.3,0-0.3,0.1s-0.1,0.2-0.1,0.4v1.2h-0.5V79.4z"/>
	<path id="XMLID_84_" class="st4" d="M46.2,81.7c-0.2,0-0.3,0-0.4-0.1c-0.1-0.1-0.2-0.1-0.3-0.2v1.4h-0.5v-3.3h0.5v0.3
		c0.1-0.1,0.2-0.2,0.3-0.2c0.1-0.1,0.3-0.1,0.4-0.1c0.1,0,0.3,0,0.4,0.1c0.1,0.1,0.3,0.1,0.4,0.2c0.1,0.1,0.2,0.2,0.3,0.4
		s0.1,0.3,0.1,0.5c0,0.2,0,0.3-0.1,0.5c-0.1,0.1-0.1,0.3-0.3,0.4c-0.1,0.1-0.2,0.2-0.4,0.2C46.5,81.6,46.3,81.7,46.2,81.7z
		 M46.1,81.2c0.1,0,0.2,0,0.3-0.1c0.1,0,0.2-0.1,0.2-0.1c0.1-0.1,0.1-0.1,0.1-0.2c0-0.1,0.1-0.2,0.1-0.3c0-0.1,0-0.2-0.1-0.3
		c0-0.1-0.1-0.2-0.1-0.2c-0.1-0.1-0.1-0.1-0.2-0.1c-0.1,0-0.2-0.1-0.3-0.1c-0.1,0-0.2,0-0.3,0.1c-0.1,0-0.2,0.1-0.2,0.1
		c-0.1,0.1-0.1,0.1-0.1,0.2c0,0.1-0.1,0.2-0.1,0.3c0,0.1,0,0.2,0.1,0.3s0.1,0.2,0.1,0.2c0.1,0.1,0.1,0.1,0.2,0.1
		C45.9,81.2,46,81.2,46.1,81.2z"/>
	<path id="XMLID_87_" class="st4" d="M48.7,81.7c-0.2,0-0.3,0-0.5-0.1s-0.3-0.1-0.4-0.2c-0.1-0.1-0.2-0.2-0.3-0.4
		c-0.1-0.1-0.1-0.3-0.1-0.4c0-0.2,0-0.3,0.1-0.4s0.1-0.3,0.3-0.4c0.1-0.1,0.2-0.2,0.4-0.2s0.3-0.1,0.5-0.1s0.3,0,0.5,0.1
		c0.1,0.1,0.3,0.1,0.4,0.2c0.1,0.1,0.2,0.2,0.3,0.4c0.1,0.1,0.1,0.3,0.1,0.4c0,0.2,0,0.3-0.1,0.4c-0.1,0.1-0.1,0.3-0.3,0.4
		c-0.1,0.1-0.2,0.2-0.4,0.2C49,81.6,48.8,81.7,48.7,81.7z M48.7,81.2c0.1,0,0.2,0,0.3-0.1c0.1,0,0.2-0.1,0.2-0.1
		c0.1-0.1,0.1-0.1,0.1-0.2c0-0.1,0.1-0.2,0.1-0.3c0-0.1,0-0.2-0.1-0.3s-0.1-0.1-0.1-0.2S49,80,48.9,79.9c-0.1,0-0.2-0.1-0.3-0.1
		s-0.2,0-0.3,0.1c-0.1,0-0.2,0.1-0.2,0.1c-0.1,0.1-0.1,0.1-0.1,0.2S48,80.4,48,80.5c0,0.1,0,0.2,0.1,0.3c0,0.1,0.1,0.1,0.1,0.2
		c0.1,0.1,0.1,0.1,0.2,0.1C48.5,81.1,48.6,81.2,48.7,81.2z"/>
	<path id="XMLID_90_" class="st4" d="M50.1,79.4h0.5v0.3c0.1-0.2,0.3-0.3,0.6-0.3c0.1,0,0.2,0,0.2,0c0.1,0,0.1,0,0.2,0.1L51.4,80
		c0,0-0.1,0-0.1-0.1c0,0-0.1,0-0.2,0c-0.2,0-0.3,0-0.3,0.1s-0.1,0.2-0.1,0.4v1.2h-0.5V79.4z"/>
	<path id="XMLID_92_" class="st4" d="M52.7,81.7c-0.1,0-0.3,0-0.4-0.1c-0.1-0.1-0.3-0.1-0.4-0.2c-0.1-0.1-0.2-0.2-0.3-0.4
		s-0.1-0.3-0.1-0.5c0-0.2,0-0.3,0.1-0.5s0.1-0.3,0.3-0.4s0.2-0.2,0.4-0.2c0.1-0.1,0.3-0.1,0.4-0.1c0.2,0,0.3,0,0.4,0.1
		s0.2,0.1,0.3,0.2v-0.3H54v2.3h-0.5v-0.3c-0.1,0.1-0.2,0.2-0.3,0.2C53,81.6,52.9,81.7,52.7,81.7z M52.8,81.2c0.1,0,0.2,0,0.3-0.1
		c0.1,0,0.2-0.1,0.2-0.1c0.1-0.1,0.1-0.1,0.1-0.2c0-0.1,0.1-0.2,0.1-0.3c0-0.1,0-0.2-0.1-0.3c0-0.1-0.1-0.1-0.1-0.2
		c-0.1-0.1-0.1-0.1-0.2-0.1c-0.1,0-0.2-0.1-0.3-0.1c-0.1,0-0.2,0-0.3,0.1c-0.1,0-0.2,0.1-0.2,0.1s-0.1,0.1-0.1,0.2
		c0,0.1-0.1,0.2-0.1,0.3c0,0.1,0,0.2,0.1,0.3c0,0.1,0.1,0.2,0.1,0.2c0.1,0.1,0.1,0.1,0.2,0.1C52.6,81.2,52.7,81.2,52.8,81.2z"/>
	<path id="XMLID_95_" class="st4" d="M54.2,79.4h0.4V79l0.5-0.4v0.7h0.5v0.5h-0.5v0.9c0,0.1,0,0.2,0,0.2c0,0.1,0,0.1,0.1,0.1
		s0.1,0.1,0.1,0.1c0.1,0,0.1,0,0.2,0v0.5h-0.1c-0.2,0-0.3,0-0.4,0c-0.1,0-0.2-0.1-0.3-0.2c-0.1-0.1-0.1-0.2-0.1-0.3s0-0.3,0-0.5
		v-0.9h-0.4V79.4z"/>
	<path id="XMLID_97_" class="st4" d="M56.9,81.7c-0.2,0-0.3,0-0.5-0.1s-0.3-0.1-0.4-0.2c-0.1-0.1-0.2-0.2-0.2-0.4s-0.1-0.3-0.1-0.4
		c0-0.2,0-0.3,0.1-0.4s0.1-0.3,0.3-0.4c0.1-0.1,0.2-0.2,0.4-0.2s0.3-0.1,0.5-0.1c0.2,0,0.3,0,0.5,0.1c0.1,0.1,0.3,0.1,0.4,0.2
		c0.1,0.1,0.2,0.2,0.2,0.3c0.1,0.1,0.1,0.3,0.1,0.4v0.2h-1.8c0,0.2,0.1,0.3,0.2,0.4c0.1,0.1,0.3,0.1,0.5,0.1c0.1,0,0.3,0,0.4-0.1
		c0.1-0.1,0.2-0.2,0.2-0.3l0.4,0.2c-0.1,0.2-0.2,0.3-0.4,0.4C57.3,81.6,57.1,81.7,56.9,81.7z M56.9,79.8c-0.2,0-0.3,0-0.4,0.1
		c-0.1,0.1-0.2,0.2-0.2,0.3h1.3c0-0.1-0.1-0.2-0.2-0.3S57,79.8,56.9,79.8z"/>
	<path id="XMLID_100_" class="st4" d="M60.2,81.7c-0.3,0-0.5,0-0.6-0.1c-0.2-0.1-0.3-0.2-0.5-0.4l0.5-0.4c0.1,0.1,0.2,0.2,0.3,0.3
		c0.1,0.1,0.2,0.1,0.4,0.1c0.1,0,0.2,0,0.3-0.1s0.1-0.2,0.1-0.3c0-0.1,0-0.1-0.1-0.1c0,0-0.1-0.1-0.1-0.1c-0.1,0-0.1-0.1-0.2-0.1
		c-0.1,0-0.1,0-0.2-0.1c-0.1,0-0.2-0.1-0.3-0.1c-0.1,0-0.2-0.1-0.3-0.1c-0.1-0.1-0.1-0.1-0.2-0.2c0-0.1-0.1-0.2-0.1-0.3
		c0-0.1,0-0.2,0.1-0.3c0-0.1,0.1-0.2,0.2-0.3c0.1-0.1,0.2-0.1,0.3-0.2c0.1,0,0.2-0.1,0.4-0.1c0.1,0,0.2,0,0.3,0c0.1,0,0.2,0,0.3,0.1
		c0.1,0,0.1,0.1,0.2,0.1c0.1,0.1,0.1,0.1,0.2,0.2l-0.4,0.3c-0.1-0.2-0.3-0.3-0.5-0.3c-0.1,0-0.2,0-0.3,0.1s-0.1,0.1-0.1,0.2
		c0,0.1,0,0.1,0,0.1c0,0,0.1,0.1,0.1,0.1c0.1,0,0.1,0.1,0.2,0.1c0.1,0,0.1,0,0.2,0.1c0.1,0,0.2,0.1,0.3,0.1s0.2,0.1,0.3,0.2
		c0.1,0.1,0.1,0.1,0.2,0.2s0.1,0.2,0.1,0.3c0,0.1,0,0.2-0.1,0.3c0,0.1-0.1,0.2-0.2,0.3c-0.1,0.1-0.2,0.1-0.3,0.2
		C60.5,81.6,60.3,81.7,60.2,81.7z"/>
	<path id="XMLID_102_" class="st4" d="M62.6,81.7c-0.2,0-0.3,0-0.5-0.1s-0.3-0.1-0.4-0.2c-0.1-0.1-0.2-0.2-0.2-0.4s-0.1-0.3-0.1-0.4
		c0-0.2,0-0.3,0.1-0.4s0.1-0.3,0.3-0.4c0.1-0.1,0.2-0.2,0.4-0.2s0.3-0.1,0.5-0.1c0.2,0,0.3,0,0.5,0.1c0.1,0.1,0.3,0.1,0.4,0.2
		c0.1,0.1,0.2,0.2,0.2,0.3c0.1,0.1,0.1,0.3,0.1,0.4v0.2h-1.8c0,0.2,0.1,0.3,0.2,0.4c0.1,0.1,0.3,0.1,0.5,0.1c0.1,0,0.3,0,0.4-0.1
		c0.1-0.1,0.2-0.2,0.2-0.3l0.4,0.2c-0.1,0.2-0.2,0.3-0.4,0.4C63.1,81.6,62.8,81.7,62.6,81.7z M62.6,79.8c-0.2,0-0.3,0-0.4,0.1
		C62,80,62,80.1,61.9,80.2h1.3c0-0.1-0.1-0.2-0.2-0.3S62.7,79.8,62.6,79.8z"/>
	<path id="XMLID_105_" class="st4" d="M64,79.4h0.5v0.3c0.1-0.2,0.3-0.3,0.6-0.3c0.1,0,0.2,0,0.2,0c0.1,0,0.1,0,0.2,0.1L65.3,80
		c0,0-0.1,0-0.1-0.1c0,0-0.1,0-0.2,0c-0.2,0-0.3,0-0.3,0.1s-0.1,0.2-0.1,0.4v1.2H64V79.4z"/>
	<path id="XMLID_107_" class="st4" d="M65.5,79.4h0.5l0.6,1.6l0.6-1.6h0.5l-0.9,2.3h-0.5L65.5,79.4z"/>
	<path id="XMLID_109_" class="st4" d="M67.9,78.8c0-0.1,0-0.2,0.1-0.2c0.1-0.1,0.1-0.1,0.2-0.1c0.1,0,0.2,0,0.2,0.1
		c0.1,0.1,0.1,0.1,0.1,0.2c0,0.1,0,0.2-0.1,0.2c-0.1,0.1-0.1,0.1-0.2,0.1c-0.1,0-0.2,0-0.2-0.1C67.9,79,67.9,78.9,67.9,78.8z
		 M68,79.4h0.5v2.3H68V79.4z"/>
	<path id="XMLID_112_" class="st4" d="M69.9,81.7c-0.2,0-0.3,0-0.5-0.1s-0.3-0.1-0.4-0.2c-0.1-0.1-0.2-0.2-0.3-0.4
		c-0.1-0.1-0.1-0.3-0.1-0.4c0-0.2,0-0.3,0.1-0.4s0.1-0.3,0.3-0.4c0.1-0.1,0.2-0.2,0.4-0.2s0.3-0.1,0.5-0.1c0.1,0,0.2,0,0.4,0.1
		c0.1,0,0.2,0.1,0.3,0.1s0.2,0.1,0.2,0.2c0.1,0.1,0.1,0.2,0.2,0.3l-0.5,0.2c-0.1-0.1-0.1-0.2-0.2-0.3c-0.1-0.1-0.2-0.1-0.4-0.1
		c-0.1,0-0.2,0-0.3,0.1c-0.1,0-0.2,0.1-0.2,0.1s-0.1,0.1-0.1,0.2s-0.1,0.2-0.1,0.3c0,0.1,0,0.2,0.1,0.3c0,0.1,0.1,0.1,0.1,0.2
		c0.1,0.1,0.1,0.1,0.2,0.1c0.1,0,0.2,0.1,0.3,0.1c0.1,0,0.3,0,0.4-0.1c0.1-0.1,0.2-0.2,0.2-0.3L71,81c0,0.1-0.1,0.2-0.2,0.3
		c-0.1,0.1-0.2,0.2-0.2,0.2c-0.1,0.1-0.2,0.1-0.3,0.1C70.2,81.6,70.1,81.7,69.9,81.7z"/>
	<path id="XMLID_114_" class="st4" d="M72.3,81.7c-0.2,0-0.3,0-0.5-0.1s-0.3-0.1-0.4-0.2c-0.1-0.1-0.2-0.2-0.2-0.4s-0.1-0.3-0.1-0.4
		c0-0.2,0-0.3,0.1-0.4s0.1-0.3,0.3-0.4c0.1-0.1,0.2-0.2,0.4-0.2s0.3-0.1,0.5-0.1c0.2,0,0.3,0,0.5,0.1c0.1,0.1,0.3,0.1,0.4,0.2
		c0.1,0.1,0.2,0.2,0.2,0.3c0.1,0.1,0.1,0.3,0.1,0.4v0.2h-1.8c0,0.2,0.1,0.3,0.2,0.4c0.1,0.1,0.3,0.1,0.5,0.1c0.1,0,0.3,0,0.4-0.1
		c0.1-0.1,0.2-0.2,0.2-0.3l0.4,0.2c-0.1,0.2-0.2,0.3-0.4,0.4C72.8,81.6,72.6,81.7,72.3,81.7z M72.3,79.8c-0.2,0-0.3,0-0.4,0.1
		c-0.1,0.1-0.2,0.2-0.2,0.3h1.3c0-0.1-0.1-0.2-0.2-0.3S72.5,79.8,72.3,79.8z"/>
	<path id="XMLID_117_" class="st4" d="M74.6,81.7c-0.3,0-0.5,0-0.6-0.1c-0.2-0.1-0.3-0.2-0.4-0.4l0.5-0.2c0.1,0.1,0.1,0.2,0.2,0.2
		c0.1,0.1,0.2,0.1,0.3,0.1c0.1,0,0.2,0,0.3-0.1S75,81,75,80.9c0,0,0-0.1,0-0.1c0,0-0.1,0-0.1-0.1c0,0-0.1,0-0.2,0
		c-0.1,0-0.1,0-0.2,0c-0.1,0-0.2,0-0.3-0.1c-0.1,0-0.2-0.1-0.3-0.1c-0.1,0-0.1-0.1-0.2-0.2c0-0.1-0.1-0.2-0.1-0.3
		c0-0.1,0-0.2,0.1-0.3c0-0.1,0.1-0.2,0.2-0.2c0.1-0.1,0.2-0.1,0.3-0.1c0.1,0,0.2-0.1,0.4-0.1c0.2,0,0.4,0,0.6,0.1
		c0.2,0.1,0.3,0.2,0.4,0.3L75,80.1c0-0.1-0.1-0.1-0.2-0.2c-0.1,0-0.2-0.1-0.3-0.1c-0.1,0-0.2,0-0.3,0.1S74.2,80,74.2,80
		c0,0.1,0,0.1,0.1,0.2c0.1,0,0.2,0.1,0.4,0.1c0.1,0,0.2,0,0.3,0.1c0.1,0,0.2,0.1,0.3,0.1c0.1,0,0.1,0.1,0.2,0.2s0.1,0.2,0.1,0.3
		c0,0.1,0,0.2-0.1,0.2c0,0.1-0.1,0.2-0.2,0.2c-0.1,0.1-0.2,0.1-0.3,0.2C74.9,81.6,74.7,81.7,74.6,81.7z"/>
	<path id="XMLID_119_" class="st4" d="M76.7,78.8h1c0.1,0,0.3,0,0.4,0.1c0.1,0.1,0.2,0.1,0.3,0.2c0.1,0.1,0.2,0.2,0.2,0.3
		c0.1,0.1,0.1,0.3,0.1,0.4c0,0.1,0,0.3-0.1,0.4c-0.1,0.1-0.1,0.2-0.2,0.3c-0.1,0.1-0.2,0.2-0.3,0.2c-0.1,0.1-0.3,0.1-0.4,0.1h-0.4
		v0.8h-0.5V78.8z M77.2,79.3v1h0.4c0.1,0,0.1,0,0.2,0c0.1,0,0.1-0.1,0.2-0.1c0,0,0.1-0.1,0.1-0.2s0-0.1,0-0.2s0-0.1,0-0.2
		c0-0.1-0.1-0.1-0.1-0.2c0,0-0.1-0.1-0.2-0.1c-0.1,0-0.1,0-0.2,0H77.2z"/>
	<path id="XMLID_122_" class="st4" d="M78.9,79.4h0.5v0.3c0.1-0.2,0.3-0.3,0.6-0.3c0.1,0,0.2,0,0.2,0c0.1,0,0.1,0,0.2,0.1L80.2,80
		c0,0-0.1,0-0.1-0.1c0,0-0.1,0-0.2,0c-0.2,0-0.3,0-0.3,0.1s-0.1,0.2-0.1,0.4v1.2h-0.5V79.4z"/>
	<path id="XMLID_124_" class="st4" d="M81.6,81.7c-0.2,0-0.3,0-0.5-0.1s-0.3-0.1-0.4-0.2c-0.1-0.1-0.2-0.2-0.3-0.4
		c-0.1-0.1-0.1-0.3-0.1-0.4c0-0.2,0-0.3,0.1-0.4s0.1-0.3,0.3-0.4c0.1-0.1,0.2-0.2,0.4-0.2s0.3-0.1,0.5-0.1s0.3,0,0.5,0.1
		c0.1,0.1,0.3,0.1,0.4,0.2c0.1,0.1,0.2,0.2,0.3,0.4c0.1,0.1,0.1,0.3,0.1,0.4c0,0.2,0,0.3-0.1,0.4c-0.1,0.1-0.1,0.3-0.3,0.4
		c-0.1,0.1-0.2,0.2-0.4,0.2C81.9,81.6,81.8,81.7,81.6,81.7z M81.6,81.2c0.1,0,0.2,0,0.3-0.1c0.1,0,0.2-0.1,0.2-0.1
		c0.1-0.1,0.1-0.1,0.1-0.2c0-0.1,0.1-0.2,0.1-0.3c0-0.1,0-0.2-0.1-0.3s-0.1-0.1-0.1-0.2S82,80,81.9,79.9c-0.1,0-0.2-0.1-0.3-0.1
		s-0.2,0-0.3,0.1c-0.1,0-0.2,0.1-0.2,0.1c-0.1,0.1-0.1,0.1-0.1,0.2S81,80.4,81,80.5c0,0.1,0,0.2,0.1,0.3c0,0.1,0.1,0.1,0.1,0.2
		c0.1,0.1,0.1,0.1,0.2,0.1C81.5,81.1,81.5,81.2,81.6,81.2z"/>
	<path id="XMLID_127_" class="st4" d="M82.7,79.4h0.5l0.6,1.6l0.6-1.6H85l-0.9,2.3h-0.5L82.7,79.4z"/>
	<path id="XMLID_129_" class="st4" d="M85.1,78.8c0-0.1,0-0.2,0.1-0.2c0.1-0.1,0.1-0.1,0.2-0.1c0.1,0,0.2,0,0.2,0.1
		c0.1,0.1,0.1,0.1,0.1,0.2c0,0.1,0,0.2-0.1,0.2c-0.1,0.1-0.1,0.1-0.2,0.1c-0.1,0-0.2,0-0.2-0.1C85.2,79,85.1,78.9,85.1,78.8z
		 M85.2,79.4h0.5v2.3h-0.5V79.4z"/>
	<path id="XMLID_132_" class="st4" d="M87.1,81.7c-0.1,0-0.3,0-0.4-0.1c-0.1-0.1-0.3-0.1-0.4-0.2c-0.1-0.1-0.2-0.2-0.3-0.4
		s-0.1-0.3-0.1-0.5c0-0.2,0-0.3,0.1-0.5s0.1-0.3,0.3-0.4s0.2-0.2,0.4-0.2c0.1-0.1,0.3-0.1,0.4-0.1c0.1,0,0.3,0,0.4,0.1
		c0.1,0.1,0.2,0.1,0.3,0.2v-0.9h0.5v2.9h-0.5v-0.3c-0.1,0.1-0.2,0.2-0.3,0.2C87.4,81.6,87.2,81.7,87.1,81.7z M87.2,81.2
		c0.1,0,0.2,0,0.3-0.1c0.1,0,0.2-0.1,0.2-0.1c0.1-0.1,0.1-0.1,0.1-0.2c0-0.1,0.1-0.2,0.1-0.3c0-0.1,0-0.2-0.1-0.3
		c0-0.1-0.1-0.1-0.1-0.2c-0.1-0.1-0.1-0.1-0.2-0.1c-0.1,0-0.2-0.1-0.3-0.1c-0.1,0-0.2,0-0.3,0.1c-0.1,0-0.2,0.1-0.2,0.1
		s-0.1,0.1-0.1,0.2c0,0.1-0.1,0.2-0.1,0.3c0,0.1,0,0.2,0.1,0.3c0,0.1,0.1,0.2,0.1,0.2c0.1,0.1,0.1,0.1,0.2,0.1
		C87,81.2,87.1,81.2,87.2,81.2z"/>
	<path id="XMLID_135_" class="st4" d="M89.8,81.7c-0.2,0-0.3,0-0.5-0.1s-0.3-0.1-0.4-0.2c-0.1-0.1-0.2-0.2-0.2-0.4s-0.1-0.3-0.1-0.4
		c0-0.2,0-0.3,0.1-0.4s0.1-0.3,0.3-0.4c0.1-0.1,0.2-0.2,0.4-0.2s0.3-0.1,0.5-0.1c0.2,0,0.3,0,0.5,0.1c0.1,0.1,0.3,0.1,0.4,0.2
		c0.1,0.1,0.2,0.2,0.2,0.3c0.1,0.1,0.1,0.3,0.1,0.4v0.2h-1.8c0,0.2,0.1,0.3,0.2,0.4c0.1,0.1,0.3,0.1,0.5,0.1c0.1,0,0.3,0,0.4-0.1
		c0.1-0.1,0.2-0.2,0.2-0.3l0.4,0.2c-0.1,0.2-0.2,0.3-0.4,0.4C90.2,81.6,90,81.7,89.8,81.7z M89.7,79.8c-0.2,0-0.3,0-0.4,0.1
		c-0.1,0.1-0.2,0.2-0.2,0.3h1.3c0-0.1-0.1-0.2-0.2-0.3S89.9,79.8,89.7,79.8z"/>
	<path id="XMLID_138_" class="st4" d="M91.1,79.4h0.5v0.3c0.1-0.2,0.3-0.3,0.6-0.3c0.1,0,0.2,0,0.2,0c0.1,0,0.1,0,0.2,0.1L92.4,80
		c0,0-0.1,0-0.1-0.1c0,0-0.1,0-0.2,0c-0.2,0-0.3,0-0.3,0.1s-0.1,0.2-0.1,0.4v1.2h-0.5V79.4z"/>
</g>
<rect id="XMLID_21_" class="st5" width="129.4" height="129.4"/>
</svg>
