<?xml version="1.0" encoding="utf-8"?>
<!-- Generator: Adobe Illustrator 19.0.0, SVG Export Plug-In . SVG Version: 6.00 Build 0)  -->
<svg version="1.1" id="Layer_1" xmlns="http://www.w3.org/2000/svg" xmlns:xlink="http://www.w3.org/1999/xlink" x="0px" y="0px"
	 viewBox="0 0 129.4 129.4" style="enable-background:new 0 0 129.4 129.4;" xml:space="preserve">
<style type="text/css">
	.st0{fill:#17B212;}
	.st1{fill:none;stroke:#104EA9;stroke-linecap:round;stroke-miterlimit:10;}
	.st2{fill:none;stroke:#104EA9;stroke-width:0.5;stroke-linecap:round;stroke-miterlimit:10;}
	.st3{fill:none;}
</style>
<rect id="XMLID_54_" x="35.2" y="28.9" class="st0" width="5" height="13.8"/>
<polygon id="XMLID_53_" class="st0" points="37.7,50.5 34.5,46 31.3,41.5 37.7,41.5 44.1,41.5 40.9,46 "/>
<path id="XMLID_52_" class="st1" d="M17.2,65.4c7,7.7,13.7,17.7,20.2,29l-9.9,8.8L6.1,73.8L17.2,65.4z"/>
<path id="XMLID_51_" class="st1" d="M20.8,69.7c0,0,2.7-0.2,6.7-4.5c1.4-1.5,2.9-2.8,4.6-3.9l0.1-0.1c5.8-3.8,13.2-4.4,19.5-1.6
	l5.1,2.2c0,0,8.1,3,22.4,1.9c0,0,4.6-0.3,5.3,2.8c0,0,1.3,3-3.2,5.1c0,0-10.1,5.3-26,0.3"/>
<path id="XMLID_50_" class="st1" d="M84.5,66.2L108.1,55c1.5-0.7,3.3-0.3,4.3,1c1.2,1.5,1,3.8-0.5,5l-11.9,9.9
	C87.7,81.2,71.7,86,55.7,84.4l-5.5-0.5c-5.8-0.6-11.5,1.4-15.6,5.5"/>
<circle id="XMLID_49_" class="st2" cx="29.8" cy="94.3" r="1.9"/>
<g id="XMLID_1_">
	<path id="XMLID_55_" class="st0" d="M61.8,43.6h-8l-1.5,3.7h-4.1l7.7-17.3h3.9l7.7,17.3h-4.2L61.8,43.6z M60.6,40.6L57.8,34
		l-2.7,6.6H60.6z"/>
	<path id="XMLID_58_" class="st0" d="M82.7,44.1v3.2H69.3V30.1h13.1v3.2h-9.1V37h8v3.1h-8v4H82.7z"/>
	<path id="XMLID_60_" class="st0" d="M85.9,30.1h7.8c1.9,0,3.5,0.4,5,1.1c1.4,0.7,2.6,1.7,3.4,3c0.8,1.3,1.2,2.8,1.2,4.5
		s-0.4,3.2-1.2,4.5c-0.8,1.3-1.9,2.3-3.4,3c-1.4,0.7-3.1,1.1-5,1.1h-7.8V30.1z M93.5,44c1.7,0,3.1-0.5,4.1-1.4c1-1,1.5-2.3,1.5-3.9
		c0-1.6-0.5-2.9-1.5-3.9c-1-1-2.4-1.4-4.1-1.4h-3.7V44H93.5z"/>
</g>
<rect id="XMLID_154_" class="st3" width="129.4" height="129.4"/>
</svg>
