<?xml version="1.0" encoding="utf-8"?>
<!-- Generator: Adobe Illustrator 19.0.0, SVG Export Plug-In . SVG Version: 6.00 Build 0)  -->
<svg version="1.1" id="Layer_1" xmlns="http://www.w3.org/2000/svg" xmlns:xlink="http://www.w3.org/1999/xlink" x="0px" y="0px"
	 viewBox="0 0 130.4 130.4" style="enable-background:new 0 0 130.4 130.4;" xml:space="preserve">
<style type="text/css">
	.st0{fill:none;stroke:#104EA9;stroke-linecap:round;stroke-miterlimit:10;}
	.st1{fill:#114EA9;}
	.st2{fill:#FFFFFF;}
	.st3{fill:none;stroke:#17B212;stroke-miterlimit:10;}
	.st4{fill:#17B212;}
	.st5{fill:none;stroke:#FFFFFF;stroke-miterlimit:10;}
	.st6{fill:#104EA9;}
	.st7{fill:none;}
</style>
<path id="XMLID_36_" class="st0" d="M92.6,109.3h-60c-2.2,0-3.9-1.8-3.9-3.9V20.9c0-2.2,1.8-3.9,3.9-3.9h64.7c2.2,0,3.9,1.8,3.9,3.9
	v79.9c0,0.6-0.2,1.2-0.7,1.6l-6.4,6.3C93.8,109.1,93.2,109.3,92.6,109.3z"/>
<polygon id="XMLID_35_" class="st1" points="92,109.3 92,100.1 101.3,100.1 101.3,100.9 92.6,109.3 "/>
<path id="XMLID_34_" class="st1" d="M88.2,54.5H40.7c-0.3,0-0.6-0.3-0.6-0.6v-0.3c0-0.3,0.3-0.6,0.6-0.6h47.5c0.3,0,0.6,0.3,0.6,0.6
	v0.3C88.7,54.3,88.5,54.5,88.2,54.5"/>
<path id="XMLID_33_" class="st1" d="M88.2,62.4H40.7c-0.3,0-0.6-0.3-0.6-0.6v-0.3c0-0.3,0.3-0.6,0.6-0.6h47.5c0.3,0,0.6,0.3,0.6,0.6
	v0.3C88.7,62.1,88.5,62.4,88.2,62.4"/>
<path id="XMLID_32_" class="st1" d="M88.2,70.2H40.7c-0.3,0-0.6-0.3-0.6-0.6v-0.3c0-0.3,0.3-0.6,0.6-0.6h47.5c0.3,0,0.6,0.3,0.6,0.6
	v0.3C88.7,69.9,88.5,70.2,88.2,70.2"/>
<path id="XMLID_31_" class="st1" d="M88.2,78H40.7c-0.3,0-0.6-0.3-0.6-0.6v-0.3c0-0.3,0.3-0.6,0.6-0.6h47.5c0.3,0,0.6,0.3,0.6,0.6
	v0.3C88.7,77.8,88.5,78,88.2,78"/>
<path id="XMLID_30_" class="st1" d="M88.2,85.9H40.7c-0.3,0-0.6-0.3-0.6-0.6V85c0-0.3,0.3-0.6,0.6-0.6h47.5c0.3,0,0.6,0.3,0.6,0.6
	v0.3C88.7,85.6,88.5,85.9,88.2,85.9"/>
<path id="XMLID_29_" class="st1" d="M88.2,93.7H40.7c-0.3,0-0.6-0.3-0.6-0.6v-0.3c0-0.3,0.3-0.6,0.6-0.6h47.5c0.3,0,0.6,0.3,0.6,0.6
	v0.3C88.7,93.5,88.5,93.7,88.2,93.7"/>
<path id="XMLID_28_" class="st2" d="M105.8,102c0,9-7.3,16.4-16.4,16.4c-9,0-16.4-7.3-16.4-16.4c0-9,7.3-16.4,16.4-16.4
	C98.5,85.6,105.8,93,105.8,102"/>
<path id="XMLID_27_" class="st2" d="M90,89.8L90,89.8c0,0.5,0.8,0.6,0.9,0.1c0.1-0.6,1-0.4,0.9,0.2c0,0.5,0.7,0.7,0.9,0.2
	c0.2-0.5,1-0.3,0.9,0.3c-0.1,0.5,0.6,0.8,0.9,0.4c0.3-0.5,1.1-0.1,0.8,0.4c-0.2,0.5,0.4,0.9,0.8,0.5c0.4-0.4,1.1,0.1,0.8,0.6
	c-0.3,0.5,0.3,1,0.7,0.6c0.5-0.4,1,0.2,0.7,0.7c-0.4,0.4,0.1,1,0.6,0.7c0.5-0.3,1,0.4,0.5,0.8c-0.4,0.3,0,1,0.5,0.8
	c0.5-0.2,0.9,0.6,0.4,0.9c-0.5,0.3-0.2,1,0.3,0.9c0.6-0.1,0.8,0.7,0.3,0.9c-0.5,0.2-0.4,0.9,0.2,0.9c0.6,0,0.7,0.8,0.1,0.9
	c-0.5,0.1-0.5,0.9,0,0.9c0.6,0.1,0.5,0.9,0,0.9c-0.5,0-0.6,0.8-0.1,0.9c0.6,0.2,0.4,1-0.2,0.9c-0.5-0.1-0.7,0.7-0.3,0.9
	c0.5,0.3,0.2,1.1-0.3,0.9c-0.5-0.2-0.8,0.5-0.4,0.8c0.5,0.3,0.1,1.1-0.5,0.8c-0.5-0.2-0.9,0.4-0.5,0.8c0.4,0.4-0.1,1.1-0.6,0.7
	c-0.4-0.3-1,0.2-0.7,0.7c0.4,0.5-0.3,1-0.7,0.6c-0.4-0.4-1,0.1-0.8,0.6c0.3,0.5-0.4,1-0.8,0.5c-0.3-0.4-1-0.1-0.8,0.4
	c0.2,0.6-0.6,0.9-0.9,0.4c-0.3-0.5-1-0.2-0.9,0.3c0.1,0.6-0.7,0.8-0.9,0.2c-0.2-0.5-0.9-0.4-0.9,0.2c0,0.6-0.9,0.7-0.9,0.1
	c-0.1-0.5-0.9-0.5-0.9,0c-0.1,0.6-0.9,0.5-0.9-0.1c0-0.5-0.8-0.7-0.9-0.2c-0.2,0.6-1,0.4-0.9-0.2c0.1-0.5-0.6-0.8-0.9-0.3
	c-0.3,0.5-1.1,0.2-0.9-0.4c0.2-0.5-0.5-0.9-0.8-0.4c-0.4,0.5-1.1,0-0.8-0.5c0.3-0.5-0.4-0.9-0.8-0.6c-0.4,0.4-1.1-0.2-0.7-0.6
	c0.3-0.4-0.2-1-0.6-0.7c-0.5,0.3-1-0.3-0.6-0.7c0.4-0.4,0-1-0.5-0.8c-0.5,0.3-1-0.5-0.5-0.8h0c0.4-0.3,0.1-1-0.4-0.8
	c-0.6,0.2-0.9-0.6-0.3-0.9c0.5-0.2,0.3-1-0.3-0.9c-0.6,0.1-0.8-0.8-0.2-0.9c0.5-0.1,0.4-0.9-0.1-0.9c-0.6,0-0.6-0.9,0-0.9
	c0.5-0.1,0.6-0.8,0-0.9c-0.6-0.1-0.5-1,0.1-0.9c0.5,0,0.7-0.7,0.2-0.9c-0.5-0.2-0.3-1,0.3-0.9c0.5,0.1,0.8-0.6,0.3-0.9
	c-0.5-0.3-0.1-1.1,0.4-0.9c0.5,0.2,0.9-0.5,0.5-0.8c-0.5-0.4,0-1.1,0.5-0.8c0.5,0.3,1-0.3,0.6-0.7c-0.4-0.4,0.2-1.1,0.7-0.7
	c0.4,0.3,1-0.2,0.7-0.6c-0.3-0.5,0.4-1,0.8-0.6c0.4,0.4,1,0,0.8-0.5c-0.2-0.5,0.5-0.9,0.8-0.4c0.3,0.5,1,0.2,0.9-0.4
	c-0.1-0.6,0.7-0.8,0.9-0.3c0.2,0.5,1,0.3,0.9-0.2c0-0.6,0.8-0.7,0.9-0.2c0.1,0.5,0.9,0.5,0.9-0.1C89.1,89.2,90,89.2,90,89.8"/>
<path id="XMLID_26_" class="st3" d="M90,89.8L90,89.8c0,0.5,0.8,0.6,0.9,0.1c0.1-0.6,1-0.4,0.9,0.2c0,0.5,0.7,0.7,0.9,0.2
	c0.2-0.5,1-0.3,0.9,0.3c-0.1,0.5,0.6,0.8,0.9,0.4c0.3-0.5,1.1-0.1,0.8,0.4c-0.2,0.5,0.4,0.9,0.8,0.5c0.4-0.4,1.1,0.1,0.8,0.6
	c-0.3,0.5,0.3,1,0.7,0.6c0.5-0.4,1,0.2,0.7,0.7c-0.4,0.4,0.1,1,0.6,0.7c0.5-0.3,1,0.4,0.5,0.8c-0.4,0.3,0,1,0.5,0.8
	c0.5-0.2,0.9,0.6,0.4,0.9c-0.5,0.3-0.2,1,0.3,0.9c0.6-0.1,0.8,0.7,0.3,0.9c-0.5,0.2-0.4,0.9,0.2,0.9c0.6,0,0.7,0.8,0.1,0.9
	c-0.5,0.1-0.5,0.9,0,0.9c0.6,0.1,0.5,0.9,0,0.9c-0.5,0-0.6,0.8-0.1,0.9c0.6,0.2,0.4,1-0.2,0.9c-0.5-0.1-0.7,0.7-0.3,0.9
	c0.5,0.3,0.2,1.1-0.3,0.9c-0.5-0.2-0.8,0.5-0.4,0.8c0.5,0.3,0.1,1.1-0.5,0.8c-0.5-0.2-0.9,0.4-0.5,0.8c0.4,0.4-0.1,1.1-0.6,0.7
	c-0.4-0.3-1,0.2-0.7,0.7c0.4,0.5-0.3,1-0.7,0.6c-0.4-0.4-1,0.1-0.8,0.6c0.3,0.5-0.4,1-0.8,0.5c-0.3-0.4-1-0.1-0.8,0.4
	c0.2,0.6-0.6,0.9-0.9,0.4c-0.3-0.5-1-0.2-0.9,0.3c0.1,0.6-0.7,0.8-0.9,0.2c-0.2-0.5-0.9-0.4-0.9,0.2c0,0.6-0.9,0.7-0.9,0.1
	c-0.1-0.5-0.9-0.5-0.9,0c-0.1,0.6-0.9,0.5-0.9-0.1c0-0.5-0.8-0.7-0.9-0.2c-0.2,0.6-1,0.4-0.9-0.2c0.1-0.5-0.6-0.8-0.9-0.3
	c-0.3,0.5-1.1,0.2-0.9-0.4c0.2-0.5-0.5-0.9-0.8-0.4c-0.4,0.5-1.1,0-0.8-0.5c0.3-0.5-0.4-0.9-0.8-0.6c-0.4,0.4-1.1-0.2-0.7-0.6
	c0.3-0.4-0.2-1-0.6-0.7c-0.5,0.3-1-0.3-0.6-0.7c0.4-0.4,0-1-0.5-0.8c-0.5,0.3-1-0.5-0.5-0.8h0c0.4-0.3,0.1-1-0.4-0.8
	c-0.6,0.2-0.9-0.6-0.3-0.9c0.5-0.2,0.3-1-0.3-0.9c-0.6,0.1-0.8-0.8-0.2-0.9c0.5-0.1,0.4-0.9-0.1-0.9c-0.6,0-0.6-0.9,0-0.9
	c0.5-0.1,0.6-0.8,0-0.9c-0.6-0.1-0.5-1,0.1-0.9c0.5,0,0.7-0.7,0.2-0.9c-0.5-0.2-0.3-1,0.3-0.9c0.5,0.1,0.8-0.6,0.3-0.9
	c-0.5-0.3-0.1-1.1,0.4-0.9c0.5,0.2,0.9-0.5,0.5-0.8c-0.5-0.4,0-1.1,0.5-0.8c0.5,0.3,1-0.3,0.6-0.7c-0.4-0.4,0.2-1.1,0.7-0.7
	c0.4,0.3,1-0.2,0.7-0.6c-0.3-0.5,0.4-1,0.8-0.6c0.4,0.4,1,0,0.8-0.5c-0.2-0.5,0.5-0.9,0.8-0.4c0.3,0.5,1,0.2,0.9-0.4
	c-0.1-0.6,0.7-0.8,0.9-0.3c0.2,0.5,1,0.3,0.9-0.2c0-0.6,0.8-0.7,0.9-0.2c0.1,0.5,0.9,0.5,0.9-0.1C89.1,89.2,90,89.2,90,89.8z"/>
<path id="XMLID_25_" class="st4" d="M98.6,101.4c0,5-4.1,9.1-9.1,9.1c-5,0-9.1-4.1-9.1-9.1c0-5,4.1-9.1,9.1-9.1
	C94.5,92.4,98.6,96.4,98.6,101.4"/>
<polyline id="XMLID_24_" class="st5" points="85.3,101.1 88.2,104 93.3,98.8 "/>
<path id="XMLID_23_" class="st4" d="M77.4,120.5l3-7.7c2.1,1.8,4.6,2.9,7.8,3l-2.6,8.2l-2.7-4.5L77.4,120.5z"/>
<path id="XMLID_22_" class="st4" d="M101.3,120.5l-3-7.7c-2.3,2-4.9,3.2-7.8,3L93,124l2.7-4.5L101.3,120.5z"/>
<g id="XMLID_37_">
	<path id="XMLID_140_" class="st6" d="M41.6,33.3h1.8v6.2h3.8v1.4h-5.6V33.3z"/>
	<path id="XMLID_142_" class="st6" d="M48.2,33.3h1.8v7.7h-1.8V33.3z"/>
	<path id="XMLID_144_" class="st6" d="M53.3,40.5c-0.6-0.3-1.1-0.8-1.5-1.4c-0.4-0.6-0.5-1.3-0.5-2c0-0.8,0.2-1.4,0.5-2
		c0.4-0.6,0.9-1.1,1.5-1.4c0.6-0.3,1.3-0.5,2.1-0.5c0.7,0,1.3,0.1,1.8,0.3c0.5,0.2,1,0.6,1.3,1l-1.1,1c-0.5-0.6-1.2-0.9-1.9-0.9
		c-0.5,0-0.9,0.1-1.3,0.3c-0.4,0.2-0.7,0.5-0.9,0.9s-0.3,0.8-0.3,1.3c0,0.5,0.1,0.9,0.3,1.3s0.5,0.7,0.9,0.9
		c0.4,0.2,0.8,0.3,1.3,0.3c0.8,0,1.4-0.3,1.9-0.9l1.1,1c-0.4,0.4-0.8,0.8-1.4,1c-0.5,0.2-1.1,0.4-1.8,0.4
		C54.6,41.1,53.9,40.9,53.3,40.5z"/>
	<path id="XMLID_146_" class="st6" d="M65.7,39.5v1.4h-5.9v-7.7h5.8v1.4h-4v1.7h3.6v1.4h-3.6v1.8H65.7z"/>
	<path id="XMLID_148_" class="st6" d="M74.1,33.3v7.7h-1.5l-3.8-4.6v4.6h-1.7v-7.7h1.5l3.8,4.6v-4.6H74.1z"/>
	<path id="XMLID_150_" class="st6" d="M76.7,40.8c-0.6-0.2-1-0.4-1.4-0.6l0.6-1.3c0.3,0.2,0.7,0.4,1.2,0.6c0.5,0.1,0.9,0.2,1.4,0.2
		c0.5,0,0.9-0.1,1.1-0.2s0.4-0.3,0.4-0.6c0-0.2-0.1-0.3-0.2-0.5c-0.1-0.1-0.3-0.2-0.5-0.3c-0.2-0.1-0.5-0.2-0.9-0.2
		c-0.6-0.1-1.1-0.3-1.4-0.4c-0.4-0.1-0.7-0.4-1-0.7c-0.3-0.3-0.4-0.7-0.4-1.2c0-0.4,0.1-0.8,0.4-1.2c0.2-0.4,0.6-0.6,1.1-0.9
		s1.1-0.3,1.8-0.3c0.5,0,1,0.1,1.4,0.2c0.5,0.1,0.9,0.3,1.2,0.5l-0.5,1.3c-0.7-0.4-1.4-0.6-2.1-0.6c-0.5,0-0.9,0.1-1.1,0.2
		c-0.2,0.2-0.4,0.4-0.4,0.6s0.1,0.5,0.4,0.6c0.3,0.1,0.7,0.3,1.3,0.4c0.6,0.1,1.1,0.3,1.4,0.4c0.4,0.1,0.7,0.4,1,0.7
		c0.3,0.3,0.4,0.7,0.4,1.2c0,0.4-0.1,0.8-0.4,1.2c-0.2,0.4-0.6,0.6-1.1,0.9c-0.5,0.2-1.1,0.3-1.8,0.3C77.8,41.1,77.3,41,76.7,40.8z"
		/>
	<path id="XMLID_152_" class="st6" d="M88.8,39.5v1.4h-5.9v-7.7h5.8v1.4h-4v1.7h3.6v1.4h-3.6v1.8H88.8z"/>
</g>
<rect id="XMLID_155_" x="0.5" y="0.5" class="st7" width="129.4" height="129.4"/>
</svg>
