<?xml version="1.0" encoding="utf-8"?>
<!-- Generator: Adobe Illustrator 19.0.0, SVG Export Plug-In . SVG Version: 6.00 Build 0)  -->
<svg version="1.1" id="Layer_1" xmlns="http://www.w3.org/2000/svg" xmlns:xlink="http://www.w3.org/1999/xlink" x="0px" y="0px"
	 viewBox="0 0 130.4 130.4" style="enable-background:new 0 0 130.4 130.4;" xml:space="preserve">
<style type="text/css">
	.st0{fill:none;stroke:#104EA9;stroke-linecap:round;stroke-miterlimit:10;}
	.st1{fill:#17B212;}
	.st2{fill:#FFFFFF;}
	.st3{fill:none;stroke:#FFFFFF;stroke-width:2;stroke-linecap:round;stroke-miterlimit:10;}
	.st4{fill:none;}
</style>
<path id="XMLID_20_" class="st0" d="M101,88.2l-9.8,22.1l-5.6-4.7l-6.1,5.4c-0.3,0.2-0.6,0.1-0.8-0.1l-6.3-5.3
	c-0.3-0.2-0.6-0.2-0.9,0l-5.7,5.2c-0.2,0.2-0.6,0.2-0.9,0l-6.8-5.3c-0.3-0.2-0.6-0.2-0.9,0l-6.8,5.3c-0.2,0.2-0.6,0.2-0.9,0
	l-6.4-4.9c-0.3-0.2-0.6-0.2-0.8,0l-6.2,4.9c-0.3,0.2-0.6,0.2-0.9,0l-5.8-5.1c-0.7-0.6-0.7-1.5-0.7-2.4v-78c0-3.8,3.2-7,7.2-7h59
	c3.4,0,6.1,2.7,6.1,6L101,88.2"/>
<path id="XMLID_17_" class="st1" d="M61.5,55c-1-0.6-1.8-1.5-2.3-2.7c-0.6-1.2-0.8-2.6-0.8-4.3s0.3-3.1,0.8-4.3
	c0.6-1.2,1.3-2.1,2.3-2.7c1-0.6,2.1-0.9,3.4-0.9c1.3,0,2.4,0.3,3.4,0.9c1,0.6,1.8,1.5,2.3,2.7c0.6,1.2,0.8,2.6,0.8,4.3
	s-0.3,3.1-0.8,4.3c-0.6,1.2-1.3,2.1-2.3,2.7c-1,0.6-2.1,0.9-3.4,0.9C63.7,56,62.5,55.7,61.5,55 M67.2,51.7c0.5-0.8,0.8-2.1,0.8-3.7
	c0-1.7-0.3-2.9-0.8-3.7c-0.5-0.8-1.3-1.2-2.2-1.2c-0.9,0-1.7,0.4-2.2,1.2C62.2,45.1,62,46.3,62,48c0,1.7,0.3,2.9,0.8,3.7
	C63.3,52.6,64,53,65,53C65.9,53,66.6,52.6,67.2,51.7"/>
<path id="XMLID_16_" class="st1" d="M40.7,70.8c-0.6-0.2-1.1-0.4-1.4-0.7l0.6-1.4c0.3,0.3,0.8,0.5,1.2,0.6c0.5,0.2,1,0.2,1.4,0.2
	c0.5,0,0.9-0.1,1.2-0.2c0.3-0.2,0.4-0.4,0.4-0.6c0-0.2-0.1-0.4-0.2-0.5c-0.2-0.1-0.3-0.2-0.6-0.3c-0.2-0.1-0.6-0.2-1-0.3
	c-0.6-0.1-1.1-0.3-1.5-0.4c-0.4-0.1-0.7-0.4-1-0.7c-0.3-0.3-0.4-0.8-0.4-1.3c0-0.5,0.1-0.9,0.4-1.3s0.6-0.7,1.2-0.9
	c0.5-0.2,1.1-0.3,1.9-0.3c0.5,0,1,0.1,1.5,0.2c0.5,0.1,0.9,0.3,1.3,0.5l-0.6,1.4c-0.8-0.4-1.5-0.6-2.2-0.6c-0.5,0-0.9,0.1-1.2,0.3
	c-0.3,0.2-0.4,0.4-0.4,0.7c0,0.3,0.1,0.5,0.4,0.6c0.3,0.1,0.7,0.3,1.3,0.4c0.6,0.1,1.1,0.3,1.5,0.4c0.4,0.1,0.7,0.4,1,0.7
	c0.3,0.3,0.4,0.7,0.4,1.3c0,0.5-0.1,0.9-0.4,1.3c-0.3,0.4-0.6,0.7-1.2,0.9c-0.5,0.2-1.1,0.3-1.9,0.3C41.9,71.1,41.3,71,40.7,70.8"/>
<polygon id="XMLID_15_" class="st1" points="53.6,69.4 53.6,71 47.3,71 47.3,62.8 53.4,62.8 53.4,64.3 49.2,64.3 49.2,66.1 
	52.9,66.1 52.9,67.6 49.2,67.6 49.2,69.4 "/>
<path id="XMLID_12_" class="st1" d="M60.2,71l-1.6-2.3h-0.1H57V71h-1.9v-8.1h3.5c0.7,0,1.3,0.1,1.9,0.4c0.5,0.2,0.9,0.6,1.2,1
	c0.3,0.4,0.4,1,0.4,1.6c0,0.6-0.1,1.1-0.4,1.6c-0.3,0.4-0.7,0.8-1.2,1l1.8,2.6H60.2z M59.8,64.7c-0.3-0.2-0.7-0.4-1.3-0.4H57v2.8
	h1.5c0.6,0,1-0.1,1.3-0.4c0.3-0.2,0.4-0.6,0.4-1C60.2,65.3,60.1,65,59.8,64.7"/>
<polygon id="XMLID_11_" class="st1" points="71.4,62.8 67.9,70.9 66,70.9 62.5,62.8 64.6,62.8 67,68.6 69.5,62.8 "/>
<rect id="XMLID_10_" x="72.1" y="62.8" class="st1" width="1.9" height="8.1"/>
<path id="XMLID_9_" class="st1" d="M77.5,70.5c-0.7-0.4-1.2-0.9-1.6-1.5c-0.4-0.6-0.6-1.4-0.6-2.2c0-0.8,0.2-1.5,0.6-2.2
	c0.4-0.6,0.9-1.1,1.6-1.5c0.7-0.4,1.4-0.5,2.3-0.5c0.7,0,1.3,0.1,1.9,0.4c0.6,0.2,1,0.6,1.4,1.1l-1.2,1.1c-0.5-0.6-1.2-0.9-2-0.9
	c-0.5,0-1,0.1-1.3,0.3c-0.4,0.2-0.7,0.5-0.9,0.9c-0.2,0.4-0.3,0.8-0.3,1.3c0,0.5,0.1,1,0.3,1.3c0.2,0.4,0.5,0.7,0.9,0.9
	c0.4,0.2,0.8,0.3,1.3,0.3c0.8,0,1.5-0.3,2-1l1.2,1.1c-0.4,0.5-0.9,0.8-1.4,1.1c-0.6,0.2-1.2,0.4-1.9,0.4
	C78.9,71.1,78.2,70.9,77.5,70.5"/>
<polygon id="XMLID_8_" class="st1" points="90.6,69.4 90.6,71 84.4,71 84.4,62.8 90.5,62.8 90.5,64.3 86.2,64.3 86.2,66.1 90,66.1 
	90,67.6 86.2,67.6 86.2,69.4 "/>
<path id="XMLID_7_" class="st2" d="M120.8,102.9c0,11-8.9,20-20,20c-11,0-20-8.9-20-20c0-11,8.9-20,20-20
	C111.8,83,120.8,91.9,120.8,102.9"/>
<polygon id="XMLID_6_" class="st1" points="56,77.4 56,79.5 59.8,79.5 59.8,81 56,81 56,84 54.1,84 54.1,75.9 60.3,75.9 60.3,77.4 
	"/>
<polygon id="XMLID_5_" class="st1" points="67.8,82.5 67.8,84 61.5,84 61.5,75.9 67.7,75.9 67.7,77.4 63.4,77.4 63.4,79.1 
	67.2,79.1 67.2,80.6 63.4,80.6 63.4,82.5 "/>
<polygon id="XMLID_4_" class="st1" points="75.6,82.5 75.6,84 69.3,84 69.3,75.9 75.4,75.9 75.4,77.4 71.2,77.4 71.2,79.1 
	74.9,79.1 74.9,80.6 71.2,80.6 71.2,82.5 "/>
<path id="XMLID_3_" class="st1" d="M115.3,102.6c0,8-6.5,14.5-14.5,14.5c-8,0-14.5-6.5-14.5-14.5c0-8,6.5-14.5,14.5-14.5
	C108.8,88.2,115.3,94.7,115.3,102.6"/>
<path id="XMLID_2_" class="st3" d="M93.4,104l4.7,4.5c0.1,0.1,0.3,0.1,0.5-0.1l9.7-10.4"/>
<rect id="XMLID_156_" x="0.5" y="0.5" class="st4" width="129.4" height="129.4"/>
</svg>
